<svg viewBox="0 0 265 315" xml:space="preserve">
    <path d="M215 316H1.04V1.1H265.85V316c-12.922 0-25.917 0-39.376-.356-.677-2.15-.281-4.371-1.194-5.676-13.112-18.727-26.373-37.352-39.683-55.94-1.63-2.276-3.759-4.197-5.856-6.502 2.514-.558 4.104-.86 5.666-1.267 6.747-1.76 12.509-1.516 17.452 4.826 3.826 4.91 9.043 8.77 13.805 12.91 8.748 7.603 17.626 15.057 26.43 22.596 4.07 3.485 8.093 7.024 12.083 10.492 7.24-5.857 6.506-8.824.519-14.758-3.701-3.668-8.012-6.715-11.983-10.118-7.733-6.63-15.173-13.63-23.193-19.887-8.008-6.248-14.955-12.434-12.638-24.137.856-4.323.495-8.997.022-13.44-.362-3.41 1.316-5.055 3.653-6.673 6.802-4.712 11.704-10.784 13.897-19.265.425-2.892.552-5.55.554-8.208.01-15.822-.01-31.644.384-47.664.47-16.5.548-32.8.558-49.102 0-.671-.642-1.343-.97-2.224.015-.21-.116-.608-.05-1-1.574-3.816-3.214-7.239-4.882-10.634-.027.029.018-.03-.056-.279-.36-.425-.646-.6-1.004-1.014-.263-.538-.536-.708-.969-.997a3.037 3.037 0 0 0-.973-.747c-.01.008.011-.027-.1-.317-1.044-1.094-1.975-1.897-2.989-2.961-.724-.425-1.364-.588-2.212-.723-.208.03-.629.022-.741-.256-.743-.686-1.373-1.094-2.354-1.574-1.463-.361-2.575-.651-4.006-1.108-1.426-.382-2.534-.598-3.86-.891-.218-.078-.677-.143-.724-.456-.014-.733.02-1.152.362-1.733.013-1.422-.283-2.682-.558-4.193-.252-.425-.526-.599-.829-.764-.03.01.016-.033-.002-.372-.32-1.107-.62-1.875-.965-2.948-.347-.774-.652-1.241-1.004-2.016a8.143 8.143 0 0 0-1.013-1.677c-.02.037.06.01.015-.306-.37-.796-.695-1.276-1.049-2.102-1.32-2.096-2.61-3.847-4.033-5.885-.73-.44-1.327-.595-2.056-1.063-1.7-1.087-3.268-1.86-4.943-2.91-.732-.683-1.357-1.088-2.179-1.567-.195-.073-.612-.111-.787-.483-1.537-.43-2.899-.49-4.37-.613-.11-.063-.349.02-.602-.361-21.503-.418-42.753-.454-64.274-.533-.465.25-.66.543-.818.85.039.013.064-.064-.35-.019-5.846-.126-11.284-.55-16.705-.391-4.262.125-8.503.967-12.922 1.8-1.444.802-2.72 1.295-4.255 1.759a1.74 1.74 0 0 0-.772.833c.038.021 0-.058-.31-.013-.778.37-1.245.697-2.001 1.13-1.084 1.032-1.878 1.957-2.956 2.967a10.582 10.582 0 0 0-1.723 1.922c.04.037-.04-.04-.342.082-1.014 1.4-1.725 2.678-2.513 4.182-.078.226-.158.699-.464.846-.789 1.376-1.27 2.605-2.055 3.992-.681 1.419-1.06 2.68-1.502 4.353-.017 1.802.027 3.192-.087 4.874-1.112.822-2.064 1.35-3.254 1.822-.239-.058-.714.065-1.017-.069-2.134.526-3.965 1.185-6.102 1.897-.777.37-1.249.687-2.056 1.029-1.76 1.326-3.185 2.628-4.917 3.977-.696.382-1.085.718-1.584 1.321-.438.726-.767 1.186-1.397 1.775-1.033 1.413-1.763 2.695-2.568 4.184-.075.208-.15.643-.484.776-.7 1.423-1.065 2.714-1.504 4.329-.03.76.014 1.199-.018 1.85-.076.214-.06.668-.456.876-.422 9.115-.447 18.023-.545 27.395-.084 24.51-.109 48.557-.06 72.603.002 1.326.61 2.651.968 4.221.033.245.19.713.116 1.042.3 1.107.675 1.884.987 3.029 3.61 9.127 9.203 16.199 17.829 21.12.059 4.93.168 9.397.036 13.857-.154 5.218-.517 10.43-.934 15.965-7.002 6.178-13.905 11.983-20.704 17.91-8.362 7.288-16.73 14.577-24.887 22.092-2.204 2.03-4.381 4.666-5.19 7.428-.513 1.746 1.122 4.616 2.607 6.239.707.773 3.845.46 4.964-.468 6.117-5.075 11.931-10.516 17.885-15.791a15256.23 15256.23 0 0 1 35.501-31.355c.814-.716 1.82-1.75 2.726-1.739 4.593.056 9.182.409 14.503.697-.695 1.417-1.086 2.588-1.769 3.554-8.892 12.584-17.83 25.135-26.744 37.704-1.503 2.12-2.507 4.923-4.507 6.291-4.336 2.966-1.795 5.277.34 7.311 3.968 3.782 6.783 3.823 9.032.436 4.278-6.441 8.255-13.088 12.668-19.433 2.168-3.118 4.523-6.455 9.455-5.236 1.864.46 3.966-.037 6.437-.021 31.24.025 62.002-.026 93.131.002 4.076-.516 6.668.07 9.087 3.857 5.204 8.143 11.427 15.627 17.05 23.512 2.675 3.752 4.932 7.804 7.378 11.72z"/><path fill="#B2C577" d="M192.114 36.94c1.291 1.752 2.582 3.503 3.92 5.91.39 1.141.733 1.624 1.076 2.108 0 0-.08.026-.048.296.371.739.71 1.208 1.048 1.678.305.467.61.934.704 1.913.271 1.368.753 2.225 1.236 3.082 0 0-.045.042.06.241.251.466.46.669.732.808.296 1.26.592 2.52.351 4.067-.387.832-.237 1.376-.087 1.92 0 0 .459.065.754.456 1.564.51 2.833.627 4.102.745 1.112.29 2.224.58 3.754 1.246a29.654 29.654 0 0 0 2.4 1.547s.42.008.735.216c.94.388 1.564.567 2.188.746.931.803 1.862 1.606 2.572 2.782-.802 1.52-2.03 3.564-1.867 3.68 3.933 2.835 1.128 5.75-.05 8.619-.71 0-1.117 0-1.58-.256-.016-.425.025-.595.184-.886-.047-.351-.213-.581-.345-.83.034-.02 0 .052-.075-.16-.22-.484-.426-.696-.82-1.14-.768-.83-1.413-1.366-2.118-2.187-.508-.424-.956-.563-1.53-.754-.126-.05-.234-.3-.102-.593-.697-.555-1.527-.816-2.598-1.143-.24-.065-.71-.226-.797-.56-3.35-.78-6.616-1.607-9.878-1.594-6.961.029-13.92.493-21.292.848-1.244.023-2.076-.024-3.239-.28-5.424-.291-10.518-.472-15.61-.416-2.486.028-4.95.51-2.864 4.236-.116.4-.17.558-.555.799-1.035 1.724-1.737 3.366-2.47 5.24-.029.233-.184.676-.529.737-1.027 1.388-1.709 2.714-2.523 4.347-1.74 1.355-3.346 2.404-5.013 3.161-1.02.247-1.98.786-3.209 1.443-.757.364-1.245.609-1.845.49-3.169-1.77-6.203-2.897-9.18.365-.765-.326-1.236-.672-1.772-1.33-1.368-.688-2.671-1.065-4.217-1.507-.4-.12-.558-.175-.735-.438-.352-.315-.685-.423-1.294-.631-.746-.436-1.216-.77-1.698-1.449-.698-1.052-1.385-1.76-2.391-2.599-2.033-3.057-3.748-5.986-5.18-8.972.54-.4.798-.745 1.057-1.089-.533-.254-1.066-.507-1.824-.796-.226-.034-.657-.189-.763-.548-2.859-1.898-5.561-2.89-8.344.416-5.492.024-10.522-.024-15.663-.436-3.167-1.742-6.205-2.9-9.309.436-2.482.023-4.53-.026-6.693-.44-3.498-1.792-6.866-3.02-10.194.54a42.818 42.818 0 0 1-3.892 1.05c-.805.602-1.299 1.178-2.063 1.863-.48.427-.69.745-1.218 1.134-1.381 1.691-2.442 3.313-3.508 5.4-.003 5.153-.001 9.84.006 14.986-.002 3.825-.01 7.191-.021 11.008-.022 3.157-.038 5.864-.3 8.83-.081 2.063.083 3.867.26 6.123.003 3.172-.005 5.89-.21 8.76-.067.7.064 1.248.208 2.264.214 5.838.415 11.208.705 16.955.033 1.144-.022 1.911-.16 2.772-.188.349-.132.57.168 1.212.033 3.559-.018 6.66-.25 10.07-.062 2.672.056 5.037.24 7.782.066.896.066 1.41-.157 2.239.292 4.055.808 7.796 1.399 11.92 1.304 9.792 11.315 17.41 20.495 17.66 1.223.033 2.427.746 3.988 1.36 1.002.313 1.657.496 2.311.497 24.307.018 48.613.028 72.919-.01 1.104-.002 2.208-.464 3.77-.787 4.146-.095 7.833-.114 11.866.101 9.179.068 18.013-.098 27.21-.392 1.279-.363 2.181-.7 3.111-.816 9.414-1.173 19.243-11.354 19.502-20.12.488-.378.737-.63 1.245-1.176.404-2.431.55-4.57 1.077-6.707 2.458 1.334 4.535 2.666 6.612 4.446a613.86 613.86 0 0 0 1.1 9.59c-1.839 8.248-6.74 14.32-13.543 19.032-2.337 1.618-4.015 3.263-3.653 6.673.473 4.443.834 9.117-.022 13.44-2.317 11.703 4.63 17.889 12.638 24.137 8.02 6.257 15.46 13.257 23.193 19.887 3.97 3.403 8.282 6.45 11.983 10.118 5.987 5.934 6.721 8.901-.52 14.758-3.99-3.468-8.012-7.007-12.082-10.492-8.804-7.539-17.682-14.993-26.43-22.596-4.762-4.14-9.979-8-13.805-12.91-4.943-6.342-10.705-6.585-17.452-4.826-1.562.407-3.152.709-5.666 1.267 2.097 2.305 4.225 4.226 5.856 6.503 13.31 18.587 26.57 37.212 39.683 55.94.913 1.304.517 3.524.726 5.675-3.366.356-6.728.356-10.547.356-2.904-3.916-5.16-7.968-7.837-11.72-5.622-7.885-11.845-15.37-17.049-23.512-2.42-3.786-5.011-4.373-9.39-4.168-1.323-.5-1.976-.705-2.628-.706-28.994-.02-57.988-.034-86.982.015-1.232.002-2.464.602-3.696.923-1.993.06-4.095.559-5.96.098-4.931-1.219-7.286 2.118-9.454 5.236-4.413 6.345-8.39 12.992-12.668 19.433-2.25 3.387-5.064 3.346-9.032-.436-2.135-2.034-4.676-4.345-.34-7.31 2-1.369 3.004-4.173 4.507-6.292 8.914-12.569 17.852-25.12 26.744-37.704.683-.966 1.074-2.137 1.769-3.554-5.32-.288-9.91-.64-14.503-.697-.906-.01-1.912 1.023-2.726 1.74A15256.23 15256.23 0 0 0 30.712 278.7c-5.954 5.275-11.768 10.716-17.885 15.791-1.119.928-4.257 1.241-4.964.468-1.485-1.623-3.12-4.493-2.608-6.24.81-2.761 2.987-5.396 5.191-7.427 8.157-7.515 16.525-14.804 24.887-22.093 6.799-5.926 13.702-11.73 21.082-18.022.876-1.12 1.529-1.804 1.535-2.494.078-8.375.094-16.751.018-25.127-.008-.854-.71-1.702-1.09-2.554-8.569-4.455-14.161-11.527-17.563-20.871-.192-1.437-.657-2.289-1.122-3.14 0 0-.157-.469-.173-1.126.066-1.752.147-2.847.44-4.21.109-2.019.009-3.77-.154-5.92-.013-1.202.036-2.005.173-2.901.2-.353.142-.575-.16-1.197-.029-2.202.016-3.968.202-5.89.046-.654-.048-1.153-.214-2.118-.025-4.562.022-8.66.24-12.988.059-1.324-.054-2.416-.22-3.886-.02-.884.014-1.39.244-2.23.048-4.356-.1-8.38-.318-12.836-.014-1.885.04-3.338.263-4.99.056-1-.055-1.798-.233-3.029-.024-1.886.018-3.34.253-5.084.076-2.341-.04-4.393-.225-6.84-.15-1.187-.233-1.981-.221-3.047.152-.455.21-.637.448-1.077.063-1.668-.055-3.08-.238-4.897-.026-1.223.014-2.04.258-3.193.291-6.402.38-12.467.696-18.715.398-.73.569-1.277.742-2.237-.012-1.511-.028-2.61-.044-3.71 0 0 .075-.435.473-.72 1.115-1.603 1.831-2.92 2.547-4.237.328-.46.657-.919 1.372-1.683.797-.646 1.205-.988 1.614-1.33 1.425-1.302 2.85-2.604 4.917-3.947 1.113-.381 1.584-.723 2.055-1.064 1.83-.66 3.662-1.32 5.89-1.718.399.261.83.321.83.321l.331-.321a62.59 62.59 0 0 0 3.351-1.97c2.281-2.272 2.536-3.945-.185-5.196.379-1.261.758-2.522 1.802-3.988 1.11-1.5 1.554-2.796 1.998-4.092 0 0 .08-.473.5-.759 1.106-1.605 1.79-2.925 2.474-4.244 0 0 .08.077.364.01.75-.703 1.216-1.34 1.682-1.977.794-.925 1.588-1.85 2.977-2.903 1.065-.47 1.535-.812 2.006-1.154 0 0 .038.08.215-.016.455-.242.668-.453.815-.73 1.277-.493 2.553-.986 4.433-1.774 2.94-.29 5.278-.286 7.708-.15.092.131.523.2.523.2s.327-.331.787-.358c3.84-.02 7.222-.013 10.862.24 2.065.082 3.869-.082 6.046-.267 1.475-.392 2.577-.763 3.68-1.133 0 0-.026.077.199.091.402.018.578.021 1.216.082 4.172.2 7.881.343 11.696.75 2.455.564 4.82 1.195 7.152 1.087 3.239-.15 6.452-.854 10.13-1.444 11.933-.227 23.41-.333 34.887-.438 0 0 .239-.083.395.264.21.529.264.712.415 1.005.096.11.492.19.492.19s.328-.264.736-.294c1.224-.087 2.04-.143 2.856-.2 0 0 .417.038.678.413.914.764 1.567 1.153 2.22 1.541 1.568.774 3.136 1.547 5.005 2.89.873.743 1.446.919 2.018 1.094m-43.1 17.044s.04-.075.182.35c.139.273.342.487.81 1.18a23.914 23.914 0 0 0 2.111 2.68c.322.324.644.648 1.606 1.459 10.36.115 20.721.275 31.082.302 1.73.005 3.463-.567 5.265-1.557-.012-.23-.025-.459-.133-.94 0 0 .06-.26.49-.643.165-.543.33-1.086.514-2.16-.608-.229-1.216-.457-2.166-1.328-.205-1.118-.41-2.235-.375-3.593-.172-.22-.343-.44-1.148-.944-2.109-1.891-4.218-3.783-6.398-6.348-1.466-1.44-2.828-3.737-5.781-.448-16.254-.223-32.508-.576-48.763-.629-12.103-.04-24.207.308-36.504-.206-3.877-1.724-7.178-.479-7.96 3.532-1.341 1.103-2.683 2.206-4.596 3.425-.153.445-.306.89-.558 1.545 0 0-.21.098-.868-.127-.238 1.17-.477 2.341-.84 3.995 0 0-.163.47-.806.638-.02 1.248-.04 2.496.39 3.829 0 0 .433.152.63.84 2.145 1.542 4.201 2.344 6.29-.81.163.039.326.079.976.719 1.537.187 3.074.375 4.79.757l.37.047s.302-.242 1.084-.382c.79.048 1.578.095 2.548.337l.368.047s.301-.242 1.092-.383c.8.046 1.598.092 2.79.484.793-.115 1.587-.23 3.214-.486 1.12.052 2.241.103 3.54.345l.362.046s.297-.237 1.124-.388c1.116.043 2.232.086 3.653.434l2.23-.458c.488-.053.977-.106 1.975-.285.19-.287.379-.574 1.216-1.01.701-1.312 1.403-2.625 2.262-4.418.28-.17.561-.341 1.296-.725.189-.27.378-.54.824-1.423 1.252-.79 2.505-1.582 4.013-2.066.262-.346.524-.692 1.295-1.166.17.035.342.071.742.353.23-.155.46-.31.746-.408 0 0-.054-.056.363-.207.268-.147.473-.355 1.294-.79.46.048.92.096 2.021.638 5.468.774 10.937 1.548 16.996 2.57 1.116.984 2.232 1.968 3.62 3.317.224.218.49.358.722.46M68.948 215.02s.136-.038-.52.497c.217 5.832.435 11.664.567 17.476 0 0 .02-.086.192.454.321.19.642.379 1.771.54l21.123 1.517c-1.49-4.318-3.043-7.438-3.603-10.727-1.25-7.334-5.4-10.059-12.717-9.653-2.26.011-4.52.022-6.813-.104m37.053 22.988s-.02-.086.487.6c16.594.131 33.189.297 49.783.302.902 0 1.805-1.34 2.718-2.81 2.394-6.364 4.788-12.728 7.8-19.268-1.097-.614-2.19-1.757-3.29-1.763-20.545-.12-41.092-.129-61.638-.066-1.294.004-2.585.78-3.836 1.953 2.325 6.632 4.651 13.265 7.178 20.429.294.202.589.403.798.623M140.91 61.4c-.993-.762-1.986-1.523-3.053-2.972-1.429-1.777-2.795-4.069-5.518-.433-.447-.047-.894-.095-1.493-.784-3.28-2.096-4.735-.12-6.474 2.942-.856 1.616-1.713 3.231-3.234 5.036-1.733 1.895-2 3.572.877 5.508 1.672 2.162 3.344 4.324 5.288 6.844.224.212.488.346 1.27.481 0 0 .458.153.777.516.537-.134 1.074-.268 2.313-.736 2.734-.96 5.469-1.918 8.953-2.929 4.624-3.58 4.874-9.258.293-13.473m38.064 156.482c-1.608 4.215-3.304 8.4-4.777 12.661-.482 1.396-.91 4.086-.461 4.3 1.65.79 3.747 1.259 5.552.997 5.278-.767 10.495-1.944 16.49-3.142.288-5.496.683-10.993.669-16.488-.001-.46-2.743-1.267-4.23-1.31-11.73-.345-11.732-.3-13.243 2.982m-15.718 30.992c-18.378.047-36.756.073-55.133.18-1.737.01-3.47.53-5.921.937-3.904-2.164-6.626-1.549-8.69 2.818-1.343 2.841-3.78 5.152-5.594 7.792-.66.959-.935 2.181-1.385 3.283 1.436.093 2.873.185 4.914.911 9.673.112 19.346.26 29.019.29 1.2.004 2.402-.616 4.472-1.105h52.894c-3.234-4.8-6.218-9.502-9.554-13.941-.656-.873-2.67-.726-5.022-1.165z"/><path fill="#B3C779" d="M223.999 179c-2.077-1.332-4.154-2.664-6.614-4.467-.384-19.623-.385-38.777-.385-57.93 0-8.786.048-17.574-.04-26.36-.018-1.75-.553-3.495-.892-5.63a78.796 78.796 0 0 1-.099-3.844c.024-.825.028-1.297.031-1.769.872-2.87 3.677-5.784-.256-8.618-.162-.117 1.065-2.162 1.979-3.39.333-.083.312-.048.434.169.395.402.668.587.94.772.354.04.627.21.994.973.378.744.644.935.974 1.037 0 0-.045.059-.04.47-.028 2.237.337 4.182-.168 5.867-1.558 5.203.912 5.727 5.006 4.72 0 0 .131.398.07.91-.124.704-.19.896-.45 1.425-.598 6.546-1.36 12.756-1.334 18.963.058 13.878.58 27.753.774 41.631.133 9.416.092 18.836-.01 28.253-.024 2.276-.595 4.545-.914 6.818z"/><path fill="#B1C578" d="M224 179.448c.318-2.72.89-4.99.914-7.266.101-9.417.142-18.837.01-28.253-.196-13.878-.717-27.753-.775-41.63-.026-6.208.736-12.418 1.431-18.502.33 16.528.37 32.93.408 49.334.01 15.822.029 31.644.02 47.466-.003 2.658-.13 5.316-.555 8.208-.721-2.814-1.087-5.862-1.454-9.357z"/><path fill="#AAFFFE" d="M88.354 276.909c.754-.398 1.986-.998 3.218-1 28.994-.049 57.988-.035 86.982-.015.652 0 1.305.206 2.261.627-30.459.362-61.221.413-92.461.388z"/><path fill="#AAFFFC" d="m38.343 118.875-.15 5.139c.035 1.478.095 2.181.155 2.884-.054 1.453-.11 2.906-.192 5.232.054 4.824.136 8.776.219 12.728-.034.506-.068 1.013-.16 2.26.016 1.746.088 2.75.16 3.754-.046 4.097-.093 8.195-.155 13.054.044 1.167.102 1.572.16 1.977-.045 1.766-.09 3.532-.12 5.947.015.65.132 1.077.132 1.077-.05.803-.099 1.606-.183 3.21-.01 2.462.015 4.124.04 5.786-.082 1.095-.163 2.19-.262 3.697-.343-.913-.95-2.238-.953-3.564-.048-24.046-.023-48.092.267-72.605.281-.467.694-.48.694-.48.083.794.166 1.588.217 3.185.023 2.775.077 4.747.13 6.72z"/><path fill="#A2FFFF" d="M177.046 29.657c-11.224.486-22.701.592-35.079.68-6.247.066-11.595.15-16.942.232-3.71-.143-7.42-.286-11.57-.701-.442-.273-.413-.702-.413-.702 21.25.037 42.5.073 64.004.49z"/><path fill="#B1F2DF" d="M226.39 132.933c-.44-16.205-.48-32.608-.614-49.472-.032-.655.033-.847.143-1.342.388.369 1.03 1.04 1.03 1.712-.01 16.302-.089 32.603-.558 49.102z"/><path fill="#B1C578" d="M225.93 80.607c-4.16 1.4-6.631.876-5.073-4.327.505-1.685.14-3.63.196-5.896 1.662 2.984 3.302 6.407 4.876 10.223z"/><path fill="#A3D8B8" d="M102.033 31.064c-3.38-.007-6.761-.013-10.837-.012-.696.008-1.168.044-1.168.044-2.337-.004-4.675-.009-7.448-.027 3.816-.538 8.057-1.38 12.32-1.505 5.42-.159 10.858.265 16.703.391-.687.325-1.79.696-3.686 1.063-2.492.012-4.188.03-5.884.046z"/><path fill="#B4E8CC" d="M56.935 211.468c.323.386 1.025 1.234 1.033 2.088.076 8.376.06 16.752-.018 25.127-.006.69-.66 1.374-1.39 2.174-.106-5.102.257-10.314.411-15.532.132-4.46.023-8.927-.036-13.857z"/><path fill="#B9FFFF" d="M38.09 108.699c-.095.271-.508.285-.714.288-.183-8.906-.158-17.814.284-26.45.51 5.958.602 11.645.694 17.331-.04.817-.08 1.634-.15 3.243.03 2.117.091 3.443.153 4.768-.058.183-.115.365-.267.82z"/><path fill="#B0CA85" d="M38.558 99.532c-.296-5.35-.389-11.037-.501-17.203-.02-.48-.037-.933.253-1.138.29-.205.716-.19.716-.19-.088 6.064-.177 12.129-.468 18.53z"/><path fill="#B1C578" d="M63.084 53.417c2.784.84 2.53 2.512.408 4.49-.38-1.298-.425-2.688-.408-4.49z"/><path fill="#B0CA85" d="M39.618 75.003c.35.967.366 2.066.078 3.58-.705.42-1.107.422-1.508.425.365-1.29.73-2.582 1.43-4.005z"/><path fill="#B1C578" d="M69.618 40.044c-.381 1.197-1.065 2.517-2.093 3.895.368-1.218 1.08-2.495 2.093-3.895zM205.643 59.997c-.95.05-2.22-.068-3.565-.5 1.03-.098 2.139.118 3.565.5zM66.64 45.072c-.137 1.15-.581 2.445-1.388 3.788.118-1.183.6-2.412 1.389-3.788z"/><path fill="#B0CA85" d="M42.67 70.043c-.414 1.187-1.13 2.504-2.17 3.9.407-1.205 1.137-2.487 2.17-3.9z"/><path fill="#B1C578" d="M200.032 51.588c-.465-.518-.947-1.375-1.176-2.437.555.562.857 1.33 1.176 2.437z"/><path fill="#B0CA85" d="M38.119 187.32c.539.522 1.004 1.374 1.26 2.443-.585-.56-.96-1.337-1.26-2.444z"/><path fill="#A3D8B8" d="M178.012 31.198c-.054-.184-.108-.367-.208-.833 1.315-.224 2.677-.165 4.214.266-.641.429-1.457.485-2.909.535-.636-.008-1.097.032-1.097.032z"/><path fill="#B1C578" d="M38.114 79.332c.475-.327.877-.33 1.579-.336.13.544-.041 1.091-.44 1.821-.227.183-.654.169-.867.16-.258-.446-.302-.884-.272-1.645zM214.956 63.658c-.54.082-1.165-.097-1.896-.514.532-.074 1.172.09 1.896.514zM71.683 38.04c-.182.552-.648 1.19-1.439 1.856.169-.571.662-1.17 1.439-1.856zM212.003 62.679c-.548-.113-1.208-.503-1.936-1.198.563.104 1.193.512 1.936 1.198zM184.984 32.68c-.546-.111-1.199-.5-1.917-1.19.56.103 1.185.508 1.917 1.19zM76.64 33.943c-.16.297-.631.639-1.407 1.002.162-.305.63-.631 1.406-1.002zM191.983 36.654c-.441.112-1.014-.064-1.756-.494.429-.101 1.026.053 1.756.494zM197.065 44.641c-.298-.167-.64-.65-1.002-1.444.307.168.631.648 1.002 1.444zM198.063 46.624c-.291-.162-.63-.631-.98-1.407.303.162.618.63.98 1.407zM201.059 58.65c-.103-.231-.253-.775-.175-1.446.194.294.161.713.175 1.446zM45.65 66.947c-.1.295-.51.637-1.196 1.016.112-.298.5-.634 1.197-1.016zM52.624 61.941c-.165.29-.636.63-1.413.989.164-.302.636-.619 1.413-.989zM77.722 33.123c.11.306-.102.517-.595.738-.032-.207.152-.487.595-.738zM59.743 60.113c.238.058-.093.38-.093.38s-.431-.06-.526-.188c-.095-.127.38-.25.619-.192z"/><path fill="#B2C577" d="M219.018 67.683c-.193.065-.466-.12-.85-.53.183-.057.477.111.85.53z"/><path fill="#B1C578" d="M220.991 69.694c-.256.147-.522-.044-.828-.551.182-.05.468.126.828.551z"/><path fill="#A3D8B8" d="M112.772 29.124c.27.042.241.471.22.686-.196.212-.372.209-.813.177-.068-.32.128-.613.593-.863z"/><path fill="#B1C578" d="M200.863 52.724c-.292.113-.502-.09-.724-.565.198-.034.472.14.724.565z"/><path d="M164.896 203.98c-3.687.018-7.374.037-11.863-.052-26.87.018-52.937.143-79.005.269-1.213-.399-2.417-1.112-3.64-1.145-9.18-.25-19.191-7.868-20.422-18.116-.031-4.542-.061-8.242-.032-12.406.106-9.482.151-18.5.475-27.41.694.716 1.111 1.326 1.545 1.922.017-.014-.021-.002.029.237.05.24.214.7.142 1.06 2.205 5.195 5.657 8.267 11.285 8.709 6.15.482 12.261 1.424 18.405 1.988 11.031 1.012 22.075 1.89 33.548 2.912 12.537.034 24.64-.019 37.17-.011 13.86-1.273 27.276-2.792 40.727-3.875 10.089-.813 18.213-3.833 20.65-14.59.462 3.455.856 6.493 1.176 9.994-.135 10.157-.197 19.852-.26 29.546-.02 8.64-9.849 18.82-19.263 19.993-.93.115-1.832.453-3.32.428-7.344-.318-14.114-.459-20.882-.388-2.158.022-4.31.607-6.465.934m36.054-26.24c-2.753-3.473-4.97-7.671-8.408-10.22-3.503-2.597-7.929-3.632-12.827-1.662-5.49 2.207-12.735 11.911-11.73 17.181 1.2 6.296 8.778 13.793 15.946 14.823 7.157 1.028 11.74-4.026 15.336-8.98 1.854-2.554 1.305-6.852 1.683-11.141M83.873 165.014c-8.818-.88-15.893 2.018-19.763 10.246-3.085 6.558.242 15.424 6.9 20.266 5.088 3.7 13.6 3.01 18.84-1.97 6.06-5.76 9.275-13.05 3.075-20.603-2.371-2.888-5.467-5.181-9.052-7.939zM126 88.848c.47.347.94.693 2.153 1.08 3.442.008 6.143-.027 8.845-.062.488-.245.976-.49 2.066-.805 1.38-.447 2.158-.824 2.936-1.2 1.607-1.05 3.213-2.098 5.258-3.59 1.147-1.72 1.855-2.996 2.563-4.271 0 0 .155-.443.503-.818 1.06-1.977 1.771-3.58 2.483-5.181.054-.158.107-.316.541-.876 1.445-1.03 2.508-1.659 4.04-2.21 15.518.02 30.57-.038 45.99-.025 1.12.025 1.87-.02 2.621-.065 0 0 .471.161.813.49 1.015.61 1.69.891 2.364 1.173 0 0 .108.248.375.503a10.4 10.4 0 0 0 1.45.834c.644.537 1.289 1.073 2.023 2.159.37.732.65.914.929 1.096 0 0 .034-.071.051.185.017.256.176.714.176.714-.041.17-.082.34-.142 1.098.037 1.038.092 1.486.095 2.36-.065 13.782-.078 27.14-.113 40.036-.024-4.45.063-8.44-.049-12.423-.19-6.747-3.972-12.002-10.646-13.102-5.974-.984-12.162-.63-18.25-.961-11.657-.634-23.31-1.334-35.179-2.394-12.78-.407-25.346-.425-38.32-.355-8.933.636-17.449 1.318-25.978 1.687-6.143.265-12.333-.247-18.45.245-6.8.547-13.38 2.107-16.563 9.53-.499-2.995-.602-5.856-.631-9.175 0-5.152-.073-9.844-.064-14.877A152.412 152.412 0 0 1 51.832 75c.21-.318.42-.636 1.199-1.045 1.072-.696 1.573-1.3 2.074-1.906a75.121 75.121 0 0 1 4.033-.975c3.797-.147 6.827-.186 9.856-.224 2.049.048 4.097.097 7.024.144 3.577-.048 6.277-.095 8.976-.142 5.03.048 10.059.096 15.99.143 3.27-.044 5.641-.086 8.011-.128 0 0 .43.155.71.506.331.776.382 1.2.432 1.625 1.714 2.929 3.429 5.858 5.506 9.241A115.456 115.456 0 0 0 118 84.855c.47.335.941.67 1.76 1.352.645.428.943.511 1.24.593.158.055.316.11.863.539 1.638.753 2.886 1.131 4.135 1.51zM112.173 58c-.19.287-.38.574-1.035.535-10.031-.348-19.596-.368-29.161-.39-.163-.04-.326-.079-1.158-.128-2.386.038-4.102.085-5.818.132 0 0-.433-.152-.579-.53.036-1.459.218-2.539.399-3.619 0 0 .163-.47.52-.85.617-1.382.88-2.386 1.141-3.39 0 0 .21-.098.467-.336A9.54 9.54 0 0 0 77.821 48c1.342-1.102 2.684-2.205 4.53-3.658 2.885-1.064 5.266-1.778 7.648-2.492 12.104-.176 24.208-.523 36.311-.484 16.255.053 32.509.406 49.595.624 2.228.372 3.624.75 5.02 1.127 2.109 1.891 4.218 3.783 6.701 6.044.374.37.535.814.535.814.205 1.118.41 2.235.742 3.942.184.76.24.932.241 1.421.248.832.551 1.346.854 1.86 0 0-.061.262-.473.517-12.926.184-25.44.113-37.955.042-.521-.747-1.043-1.494-1.621-2.768-.336-.71-.615-.894-.894-1.079 0 0-.04.075-.087-.191-.347-.364-.648-.461-.949-.559-1.115-.983-2.231-1.967-3.803-3.424-5.652-4.177-11.546-2.365-17.182-2.59-.46-.049-.92-.097-1.97-.084-.766.335-.943.607-1.12.88 0 0 .054.056-.21.058-.263.002-.71.16-.71.16-.172-.036-.343-.072-1.02-.085-.685.294-.865.565-1.045.837-1.252.791-2.505 1.582-4.129 2.766-.55.677-.728.96-.906 1.243-.28.17-.561.341-1.22.88-1.096 1.644-1.814 2.922-2.531 4.2zM90.842 264.163l-4.31-.278c.451-1.102.727-2.324 1.386-3.283 1.814-2.64 4.25-4.95 5.594-7.792 2.064-4.367 4.786-4.982 9.478-2.793 3.515.358 6.239.959 8.967.98 11.794.092 23.594.22 35.381-.092 5.64-.149 11.256-1.247 16.882-1.915 1.388.324 3.402.177 4.058 1.05 3.336 4.439 6.32 9.142 9.554 13.94-18.33 0-35.612 0-53.803.015-11.668.065-22.427.116-33.187.168zM166.171 217.01c-2.394 6.363-4.788 12.727-7.565 19.673-1.452.828-2.521 1.287-3.59 1.288-16.345.02-32.69-.021-49.035-.048 0 0 .02.086-.013-.196-.344-.479-.655-.676-.966-.872-2.326-6.633-4.652-13.266-6.531-20.35 21.527-.47 42.608-.507 63.69-.463 1.337.003 2.674.63 4.01.968m-57.652 5.102c-.105.3-.21.6-.51 1.775.057 2.668.114 5.337.336 8.886 6.272.075 12.546.063 18.815.245 8.832.258 17.658.708 26.49.909.715.016 1.46-1.254 2.465-2.576v-10.36c-15.405 0-30.048-.016-44.691.043-.832.003-1.661.615-2.427.965 0 0 .012-.068-.478.113zM75.982 215.82c7.095-1.1 11.245 1.624 12.496 8.958.56 3.29 2.114 6.409 3.603 10.727-7.433-.534-14.278-1.025-21.614-1.778-.811-.448-1.132-.633-1.452-.819 0 0-.02.086-.008-.374.034-6.156.055-11.854.077-17.551 0 0-.136.038.275.169 2.48.31 4.552.489 6.623.668zM195.024 232.88c-5.24 1.017-10.458 2.194-15.736 2.96-1.805.263-3.902-.206-5.552-.996-.448-.214-.021-2.904.461-4.3 1.473-4.261 3.169-8.446 5.196-13.208 5.38-.882 10.339-1.216 15.631-1.573v17.118z"/><path d="M139.867 74.926c-2.734.959-5.469 1.918-8.874 2.982-1.101.16-1.53.214-1.96.268 0 0-.46-.153-.781-.439-.621-.374-.92-.464-1.22-.553-1.672-2.162-3.344-4.324-5.034-7.249-.076-2.154-.135-3.544-.194-4.934.856-1.616 1.713-3.231 3.24-5.04 2.432-.831 4.193-1.47 5.955-2.107.447.047.894.095 2.04.13 2.098.37 3.496.75 4.894 1.132.992.762 1.985 1.523 3.191 2.985 1.837 4.998.962 8.993-1.257 12.825z"/><path fill="#9FDABB" d="M163.738 248.933c-5.144.725-10.76 1.823-16.4 1.972-11.787.311-23.587.184-35.38.092-2.73-.021-5.453-.622-8.61-1.042 1.305-.37 3.038-.89 4.775-.9 18.377-.107 36.755-.133 55.615-.122z"/><path fill="#A1E6D3" d="M74.376 204.412c25.72-.34 51.788-.466 78.198-.408-.76.431-1.864.893-2.968.895-24.306.038-48.612.028-72.919.01-.654 0-1.309-.184-2.311-.497z"/><path fill="#B1C578" d="M216.11 85c.297 1.748.832 3.493.85 5.244.088 8.785.04 17.573.04 26.36l.003 57.927c-.144 2.608-.29 4.747-.71 6.71-.301-9.528-.328-18.88-.321-28.7.068-22.825.103-45.183.139-67.54z"/><path fill="#B0CA85" d="M51.937 147.056c-.417-.61-.834-1.22-1.881-1.788-.918 1.28-1.205 2.515-1.492 3.752-.201-5.37-.402-10.74-.601-16.902-.008-1.226-.017-1.659-.027-2.092l.029-9.03c-.007-2.57-.018-4.265-.03-5.96.017-2.707.033-5.414.438-8.46.78 1.17 1.49 2.673 1.513 4.187.127 8.464.088 16.931.115 25.8.65 3.765 1.293 7.13 1.936 10.493z"/><path fill="#AFEFE7" d="M166.48 216.921c-1.645-.248-2.982-.876-4.32-.879-21.08-.044-42.162-.007-63.71.085.826-.343 2.117-1.12 3.41-1.123 20.547-.063 41.094-.055 61.64.066 1.1.006 2.192 1.15 2.98 1.851z"/><path fill="#9BECDE" d="M195.402 232.79c-.378-5.336-.378-10.763-.378-17.027-5.292.357-10.252.691-15.609 1.195 1.07-2.357 1.072-2.402 12.802-2.058 1.487.044 4.229.852 4.23 1.311.014 5.495-.38 10.992-1.045 16.579z"/><path fill="#AEECE5" d="M106.235 238.266c16.091-.316 32.436-.276 48.78-.295 1.07-.001 2.139-.46 3.586-.911-.525.51-1.428 1.85-2.33 1.85-16.594-.004-33.189-.17-50.036-.644z"/><path fill="#9CD7B5" d="M49.992 136.16c-.018-8.466.021-16.933-.106-25.397-.023-1.514-.733-3.017-1.508-4.637-.376-3.478-.37-6.844-.055-10.684.723-.468 1.14-.463 1.557-.459.103 2.861.206 5.722.733 9.196.412 9.02.465 17.428.344 25.833-.029 2.053-.628 4.099-.965 6.148z"/><path fill="#93FBF8" d="M165.242 204.213c1.809-.561 3.96-1.146 6.119-1.168 6.768-.07 13.538.07 20.518.517-8.624.553-17.458.72-26.637.651z"/><path fill="#B2FFFF" d="M203.008 70.819c-15.05.058-30.102.116-45.324-.213 4.603-.57 9.377-.75 14.151-.932.832.047 1.664.094 3.354.154 5.316.035 9.778-.053 14.23.11 4.534.165 9.06.577 13.59.88z"/><path fill="#B1C578" d="M203.378 70.89c-4.9-.375-9.425-.787-13.959-.952-4.452-.163-8.914-.075-13.817-.18 6.513-.368 13.472-.832 20.433-.861 3.262-.013 6.527.814 9.878 1.594-.664.379-1.415.424-2.535.399z"/><path fill="#ADEEE6" d="M151.844 57.976c12.24-.148 24.755-.077 37.728-.135.473.1.486.329-.005.88-12.497.364-24.49.405-36.484.446-.322-.324-.644-.648-1.24-1.191z"/><path fill="#B1C578" d="M153.403 59.41c11.674-.284 23.667-.325 36.129-.346-1.264.325-2.996.897-4.727.892-10.36-.027-20.721-.187-31.402-.546zM125.13 30.832c5.242-.346 10.59-.429 16.382-.373-2.778.607-5.991 1.311-9.23 1.461-2.331.108-4.697-.523-7.152-1.088z"/><path fill="#A3FFFF" d="M91.145 264.48c10.457-.369 21.216-.42 32.45-.406-.727.396-1.93 1.016-3.13 1.012-9.672-.03-19.345-.178-29.32-.607z"/><path fill="#B0CA85" d="M49.954 94.525c-.491.454-.908.45-1.636.46-.314-4.673-.316-9.36-.014-14.517.704-.472 1.104-.476 1.504-.48.073 4.693.146 9.385.146 14.537z"/><path fill="#B2EAD0" d="M215.938 153.01c.027 9.352.054 18.703.097 28.523-.233.721-.482.974-.97 1.352a574.317 574.317 0 0 1 .216-29.418c.268-.462.657-.457.657-.457z"/><path fill="#ACFFFF" d="M82.22 58.446c9.322-.28 18.887-.259 28.663.151-.277.443-.766.496-1.915.555-1.065.052-1.47.1-1.875.147-1.115-.043-2.231-.086-3.97-.102a6.219 6.219 0 0 0-1.04.125c-1.122-.052-2.243-.103-4.122-.162a56.284 56.284 0 0 0-2.848.147 64.88 64.88 0 0 0-3.005-.116c-.607.023-1.033.12-1.033.12-.789-.048-1.578-.095-2.97-.121-.604.021-1.03.118-1.03.118-1.537-.187-3.074-.375-4.854-.862z"/><path fill="#8BFFFF" d="M48.653 149.397c.198-1.614.485-2.85 1.125-4.235.307 8.869.262 17.886-.134 27.402-.541.531-.734.563-.926.594 0-.515-.001-1.03.036-2.34-.03-3.09-.096-5.382-.163-7.675.052-3.102.103-6.203.13-9.974a4.914 4.914 0 0 0-.146-1.093c.056-.768.111-1.535.078-2.68z"/><path fill="#B1C578" d="M171.504 69.465c-4.443.39-9.217.571-14.288 1.063-1.36.938-2.423 1.567-3.804 2.355-2.467-3.324-.004-3.806 2.482-3.834 5.092-.056 10.186.125 15.61.416zM140.242 74.9c1.844-3.806 2.72-7.8 1.02-12.5 4.23 3.216 3.979 8.894-1.02 12.5z"/><path fill="#B0CA85" d="M48.494 173.472c.416-.345.609-.377 1.091-.443.32 3.665.35 7.365.306 11.522a105.942 105.942 0 0 1-1.397-11.079z"/><path fill="#B1C578" d="M127.355 47.392c5.315-.021 11.209-1.833 16.565 2.22-5.307-.425-10.776-1.199-16.565-2.22zM68.88 70.483c-2.915.405-5.945.444-9.426.433 2.56-3.453 5.928-2.224 9.426-.433zM89.902 41.505c-2.285 1.059-4.666 1.773-7.423 2.524.15-3.348 3.45-4.593 7.423-2.524z"/><path fill="#B3E6C2" d="M68.755 215.25c.308 5.43.286 11.128.295 17.295-.187-5.363-.405-11.195-.295-17.294z"/><path fill="#B1C578" d="M84.882 70.488c-2.587.411-5.287.458-8.43.435 2.225-3.334 5.263-2.177 8.43-.435zM136.886 89.501c-2.59.4-5.29.435-8.438.407 2.235-3.303 5.27-2.177 8.438-.407zM108.889 70.508c-2.264.401-4.634.443-7.443.414 1.882-3.304 4.584-2.312 7.443-.414z"/><path fill="#B0CA85" d="M38.571 144.525c-.279-3.619-.36-7.57-.346-11.963.246 3.583.394 7.607.346 11.963z"/><path fill="#B3E6C2" d="M75.871 215.472c-1.96.169-4.031-.01-6.497-.252 1.866-.073 4.126-.084 6.497.252z"/><path fill="#B1C578" d="M75.1 58.493c1.617-.391 3.333-.438 5.474-.416-1.175 3.104-3.231 2.302-5.474.416zM130.923 57.533c-1.686.959-3.447 1.597-5.566 2.267.755-2.709 2.21-4.684 5.566-2.267zM137.895 58.773c-1.36-.038-2.758-.42-4.525-.865 1.693-3.548 3.06-1.256 4.525.865zM121.472 65.096c.391 1.295.45 2.685.444 4.49-2.776-.824-2.51-2.501-.444-4.49zM180.89 42.78c-1.361-.04-2.757-.418-4.521-.862 1.657-3.212 3.019-.915 4.52.862zM152.475 74.084c-.38 1.519-1.092 3.121-2.122 4.865.385-1.5 1.087-3.14 2.122-4.865zM49.89 79.648c-.482.344-.882.348-1.581.354.762-1.618 1.823-3.24 3.204-4.931-.3 1.365-.92 2.801-1.623 4.577z"/><path fill="#B0CA85" d="M48.411 163.45c.247 1.986.313 4.278.277 6.987-.221-1.95-.339-4.314-.277-6.987z"/><path fill="#B1C578" d="M125.934 88.537c-1.184-.067-2.432-.445-3.828-1.133 1.157.068 2.46.445 3.828 1.133zM149.476 80.06c-.363 1.215-1.071 2.49-2.085 3.904.376-1.189 1.058-2.515 2.085-3.903zM76.153 49.647c.067 1.117-.195 2.12-.75 3.263-.056-1.034.183-2.205.75-3.263z"/><path fill="#B0CA85" d="M38.536 118.586c-.247-1.683-.3-3.655-.256-6.036.216 1.643.332 3.695.256 6.036z"/><path fill="#B1C578" d="M141.94 87.569c-.718.668-1.496 1.045-2.607 1.373.627-.587 1.587-1.126 2.607-1.373zM74.5 54.084c.14.996-.042 2.076-.303 3.492-.06-.912-.04-2.16.302-3.492zM47.69 115.295c.257 1.436.268 3.13.263 5.248a30.95 30.95 0 0 1-.263-5.248z"/><path fill="#B0CA85" d="M38.46 181.655c-.236-1.394-.26-3.056-.189-5.12.198 1.35.298 3.101.188 5.12z"/><path fill="#B1C578" d="M102.293 31.31c1.436-.263 3.132-.28 5.251-.271a29.923 29.923 0 0 1-5.25.27zM112.496 57.926c.394-1.203 1.112-2.48 2.129-3.885-.402 1.185-1.104 2.498-2.129 3.885z"/><path fill="#B0CA85" d="M38.538 107.622c-.243-1.068-.304-2.394-.27-4.105.215 1.025.333 2.437.27 4.105z"/><path fill="#B1C578" d="M117.99 84.512c-.654-.377-1.32-1.097-2.028-2.144.643.383 1.33 1.092 2.028 2.144zM209.308 72.194c-.807.012-1.48-.27-2.256-.814.729-.002 1.559.26 2.256.814z"/><path fill="#B0CA85" d="M38.547 150.64c-.244-.772-.316-1.776-.277-3.143.223.728.336 1.82.277 3.144z"/><path fill="#ADEEE6" d="M190.212 57.007c-.517-.323-.82-.837-.78-1.646.725-.255 1.107-.215 1.489-.175-.165.544-.33 1.087-.709 1.821z"/><path fill="#B1C578" d="M214.185 81.012c-.055-.449-.11-.897-.09-1.679.482-.333.888-.333 1.6-.333.302.472.298.944-.018 1.734-.706.305-1.099.291-1.492.278zM110.419 72.941c-.332-.367-.383-.792-.487-1.533.478-.063 1.011.19 1.544.444-.259.344-.517.688-1.057 1.09zM190.931 54.921c-.392.225-.774.185-1.444.123-.344-.195-.4-.366-.413-.805.651-.04 1.26.188 1.857.682z"/><path fill="#B0CA85" d="M38.516 126.698c-.228-.503-.288-1.206-.257-2.252.202.455.313 1.254.257 2.252z"/><path fill="#B1C578" d="M54.794 72.075c-.19.58-.691 1.184-1.493 1.771.194-.594.688-1.17 1.493-1.771zM95.309 59.48c.5-.224 1.197-.276 2.235-.25-.451.193-1.245.308-2.235.25zM121.087 49.066c.052-.426.232-.697.663-.927-.011.388-.273.734-.663.927zM107.246 59.452c.252-.2.657-.248 1.36-.226-.202.171-.704.275-1.36.226zM77.535 48.058c.081.338-.123.733-.536 1.261-.055-.312.098-.757.536-1.26z"/><path fill="#B0CA85" d="M38.521 165.747c-.199-.249-.257-.654-.229-1.355.181.202.275.7.23 1.355z"/><path fill="#B1C578" d="M210.94 73.541c-.334.091-.728-.103-1.264-.5.308-.063.756.076 1.264.5zM129.192 78.358c.27-.236.7-.29 1.45-.283-.217.196-.754.33-1.45.283zM120.982 86.592c-.278.126-.576.043-.946-.285.26-.138.594-.03.946.285zM47.74 130.178c.206.281.215.714.21 1.471-.146-.223-.277-.771-.21-1.47zM178.109 31.307c-.097-.11.364-.149.592-.111.228.037-.1.301-.1.301s-.396-.08-.492-.19z"/><path fill="#AEECE5" d="M105.102 237.12c.21-.069.522.128.91.598-.22.071-.515-.13-.91-.598z"/><path fill="#B3E6C2" d="M69.1 233.178c.235-.084.556.101.964.563-.235.086-.556-.104-.963-.563z"/><path fill="#B1C578" d="M90.12 31.228c-.092-.132.38-.168.616-.15.235.019-.092.35-.092.35s-.431-.069-.523-.2zM102.17 59.417c-.088-.095.331-.193.54-.145.21.049-.088.286-.088.286s-.363-.046-.451-.14zM123.138 48.283c-.115-.123.333-.28.568-.312.005.125-.224.28-.568.312zM91.166 59.408c-.09-.097.335-.194.547-.146.212.048-.09.29-.09.29s-.367-.047-.457-.144zM87.165 59.406c-.09-.098.336-.195.548-.147.213.049-.089.291-.089.291s-.37-.047-.46-.144zM213.878 76.868c-.204.03-.484-.152-.729-.59.303-.106.51.106.729.59zM127.168 77.363c.164-.09.463 0 .845.334-.221.19-.485.057-.845-.334zM214.298 77.858c-.118.121-.277-.337-.329-.574.116-.007.282.223.33.574zM124.153 47.866c-.032-.197.145-.47.573-.721.108.29-.097.5-.573.721zM149.126 54.122c.208-.027.487.157.722.597-.31.103-.513-.11-.722-.597zM148.155 53.343c.165-.085.466.012.851.356-.223.185-.49.045-.85-.356zM116.151 52.815c-.049-.177.13-.46.55-.831.055.183-.134.454-.55.83zM188.28 49.855c-.119.12-.28-.323-.337-.552.114-.008.285.212.337.552z"/><path fill="#B0CA85" d="M48.493 152.17c.082-.094.206.33.145.543-.277.026-.333-.195-.145-.544zM38.48 172.834c-.088.093-.205-.335-.146-.548.287-.027.345.195.145.548z"/><path fill="#B6E4C1" d="M214.133 81.436c.445-.41.838-.397 1.523-.348.318 1.069.344 2.103.412 3.525.007 22.745-.028 45.103-.096 67.929-.034.468-.423.463-.617.462-.589-3.04-.983-6.077-1.476-9.912-.012-7.583.076-14.37.164-21.156.012-13.358.025-26.717.09-40.5z"/><path fill="#B2C678" d="M214.02 121.473c-.065 7.25-.153 14.036-.21 21.203-2.337 11.553-10.461 14.573-20.55 15.386-13.451 1.083-26.867 2.602-41.033 3.57-12.184-.468-23.634-.59-35.083-.64-.738-.003-1.477.566-2.216.869-11.038-.935-22.082-1.813-33.113-2.825-6.144-.564-12.256-1.506-18.405-1.988-5.628-.442-9.08-3.514-11.168-8.832.022-.714-.143-.945-.31-1.176 0 0 .039-.012.022.002-.66-3.35-1.302-6.714-1.953-10.48.328-2.451.927-4.497.956-6.55.12-8.405.068-16.813.05-25.7 2.762-8.035 9.34-9.595 16.142-10.142 6.116-.492 12.306.02 18.449-.245 8.53-.37 17.045-1.051 26.278-1.391 13.219.287 25.727.367 38.235.447 11.654.672 23.307 1.372 34.963 2.006 6.089.33 12.277-.023 18.251.961 6.674 1.1 10.456 6.355 10.646 13.102.112 3.984.025 7.973.05 12.423m-106.727 28.443c.886.324 1.77.927 2.657.93 15.612.061 31.224.068 46.835.008 1.072-.004 2.14-.624 3.58-1.59 1.44.248 2.911.822 4.316.69 9.62-.908 19.24-1.858 28.833-3.02 4.151-.503 8.043-1.809 8.12-7.123.14-9.796.37-19.596.148-29.386-.027-1.173-2.57-3.194-4.044-3.288-14.142-.905-28.302-1.97-42.461-2.034-21.884-.098-43.772.497-65.657.916-8.08.154-16.16.56-24.227 1.058-1.227.076-2.384 1.282-4.318 2.203-.333.538-.95 1.073-.956 1.615-.073 7.154-.12 14.31.01 21.463.016.881 1.099 1.743 1.856 3.473.01 9.948.666 10.617 10.062 11.166 11.657.683 23.309 1.465 35.246 2.92z"/><path fill="#B1C679" d="M201.03 178.13c-.458 3.899.09 8.197-1.763 10.751-3.597 4.954-8.18 10.008-15.336 8.98-7.168-1.03-14.746-8.527-15.946-14.823-1.005-5.27 6.24-14.974 11.73-17.181 4.898-1.97 9.324-.935 12.827 1.662 3.439 2.549 5.655 6.747 8.487 10.61m-16.385-1.12-4.62 4.535c1.943 1.447 3.792 3.087 5.93 4.139.331.163 2.58-2.24 2.898-3.684.526-2.401.577-5.247-4.208-4.99z"/><path fill="#B0C577" d="M84.283 165.11c3.175 2.662 6.27 4.955 8.642 7.843 6.2 7.553 2.985 14.843-3.076 20.602-5.24 4.98-13.751 5.671-18.838 1.971-6.659-4.842-9.986-13.708-6.901-20.266 3.87-8.228 10.945-11.126 20.173-10.15m-1.722 19.856c.14-.327.28-.654 1.11-1.205 2.294-2.655 1.465-5.16-1.04-6.742-2.126-1.343-4.936-2.698-7.348 1.059-2.683 2.338-2.854 4.357.745 6.48.332.138.665.275 1.038 1.14 1.913 1.632 3.689 2.328 5.495-.732z"/><path fill="#A2DBBD" d="M115.363 161.948c.304-.39 1.043-.959 1.78-.956 11.45.05 22.9.172 34.655.581-11.796.356-23.898.409-36.435.375z"/><path fill="#B0CA85" d="M51.983 147.28c.116-.009.281.222.33.576-.116.122-.28-.338-.33-.577z"/><path fill="#ACF2ED" d="M149.896 92.593c-12.293.308-24.801.228-37.61-.147 12.264-.278 24.83-.26 37.61.147z"/><path fill="#B2C575" d="M108.18 231.893c-.057-2.669-.114-5.338.099-8.593.454-.83.607-1.09.73-1.369 0 0-.012.068.427.106 12.437.023 24.437.003 36.436-.005 9.65-.007 9.65 0 8.505 9.897-15.7.016-30.949-.01-46.197-.036z"/><path fill="#AFE5CC" d="M154.83 231.886c.692-9.855.692-9.86-8.958-9.854-12 .008-23.999.028-36.469-.006.36-.377 1.189-.99 2.02-.992 14.644-.059 29.287-.042 44.692-.042 0 3.558 0 6.959-.39 10.664-.56.28-.728.255-.896.23z"/><path fill="#B2EAD1" d="M154.377 231.929c.62-.018.788.007 1.21.051-.477.693-1.222 1.963-1.937 1.947-8.832-.201-17.658-.651-26.49-.909-6.269-.182-12.543-.17-18.897-.685 15.165-.414 30.413-.388 46.114-.404z"/><path fill="#AFE5CC" d="M108.764 222.022c.122.188-.031.448-.388.84-.067-.15.038-.45.388-.84z"/><path d="M61.82 109.042c1.19-.683 2.347-1.89 3.574-1.965 8.067-.498 16.147-.904 24.227-1.058 21.885-.419 43.773-1.014 65.657-.916 14.159.063 28.32 1.13 42.46 2.034 1.475.094 4.018 2.115 4.045 3.288.222 9.79-.008 19.59-.149 29.386-.076 5.314-3.968 6.62-8.119 7.123-9.593 1.162-19.212 2.112-28.833 3.02-1.405.132-2.876-.442-4.917-.295-17.986.11-35.37-.174-52.755-.458-11.653-.74-23.305-1.521-34.962-2.204-9.396-.55-10.051-1.218-10.26-12-.122-9.208-.045-17.581.032-25.955m15.149 17.988c.007-1.315.02-2.63.02-3.945.011-10.52.01-10.52-11.65-9.878v16.796c3.489 0 6.65.108 9.79-.093.61-.039 1.143-1.279 1.84-2.88z"/><path fill="#A8E4D3" d="M107.152 149.559c17.243-.074 34.627.21 52.428.416-.654.255-1.722.875-2.794.88-15.611.059-31.223.052-46.835-.008-.887-.004-1.771-.607-2.799-1.288z"/><path fill="#B3E6C6" d="M61.448 109.161c.295 8.255.218 16.628.255 25.406-.474-.466-1.557-1.328-1.573-2.209-.13-7.152-.083-14.309-.01-21.463.005-.542.623-1.077 1.328-1.734z"/><path d="M185.067 177.012c4.362-.26 4.311 2.586 3.785 4.987-.317 1.445-2.567 3.847-2.898 3.684-2.138-1.052-3.987-2.692-5.93-4.139 1.54-1.512 3.08-3.024 5.043-4.532z"/><path fill="#ADEEDC" d="M75.948 177.95c1.747-3.63 4.557-2.274 6.683-.931 2.505 1.581 3.334 4.087.678 6.837-.361.095-.396.063-.365-.34-.166-5.791-1.663-6.889-6.96-5.531l-.036-.036z"/><path fill="#ADEEDC" d="M76.033 183.974c-3.604-1.539-3.433-3.558-.418-5.96.333-.065.358-.041.366.392.051 2.118.094 3.803.116 5.507l-.064.061zM81.986 184.98c-1.231 3.046-3.007 2.35-4.924.338-.005-.38.027-.412.428-.378 1.743.012 3.084-.01 4.443-.014l.053.055z"/><path fill="#ADEEDC" d="M82.964 183.968c-.123.344-.263.671-.69 1.005-.288.008-.324-.028-.274-.295.338-.431.625-.595.913-.76l.051.05zM77.041 184.955c-.348-.122-.68-.26-1.01-.689.002-.292.044-.333.309-.276.426.343.587.63.749.916l-.048.049z"/><path fill="#ACC97F" d="M66.267 113.144c10.733-.58 10.733-.58 10.723 9.94-.002 1.316-.014 2.63-.454 4.571-9.678 2.786-10.519 2.192-10.495-6.65.007-2.62.147-5.24.226-7.86z"/><path fill="#ABF2E7" d="M65.803 113.176c.385 2.589.245 5.209.238 7.83-.024 8.841.817 9.435 10.43 7.107-.2.518-.732 1.758-1.341 1.797-3.142.2-6.302.093-9.79.093 0-5.672 0-11.234.463-16.827z"/><path d="M77.49 184.94c-.563-.32-.724-.607-1.128-.97-.287-1.761-.33-3.446-.37-5.552 5.29-1.79 6.786-.693 6.952 5.098-.319.567-.606.73-.96 1.143-1.41.27-2.751.293-4.494.281z"/>
</svg>